<?xml version="1.0" encoding="UTF-8"?>
<svg xmlns="http://www.w3.org/2000/svg" xmlns:xlink="http://www.w3.org/1999/xlink" width="2626" height="2626" viewBox="0 0 2626 2626">
<path fill-rule="nonzero" fill="rgb(0%, 0%, 0%)" fill-opacity="1" d="M 49.839844 3.261719 C 27.167969 10.820312 6.652344 33.710938 1.902344 56.808594 C -7.382812 101.300781 37.101562 145.78125 81.585938 136.5 C 115.054688 129.589844 140.96875 95.460938 137.730469 63.289062 C 135.355469 40.621094 118.292969 17.300781 96.699219 6.710938 C 83.527344 0.449219 63.230469 -1.058594 49.839844 3.261719 Z M 49.839844 3.261719 "/>
<path fill-rule="nonzero" fill="rgb(0%, 0%, 0%)" fill-opacity="1" d="M 326.246094 3.261719 C 293.640625 14.058594 271.613281 49.898438 278.308594 81.429688 C 283.707031 107.128906 307.675781 131.101562 333.15625 136.5 C 375.050781 145.351562 418.453125 105.828125 414.136719 63.289062 C 411.761719 40.621094 394.699219 17.300781 373.105469 6.710938 C 359.933594 0.449219 339.636719 -1.058594 326.246094 3.261719 Z M 326.246094 3.261719 "/>
<path fill-rule="nonzero" fill="rgb(0%, 0%, 0%)" fill-opacity="1" d="M 602.652344 3.261719 C 579.980469 10.820312 559.464844 33.710938 554.714844 56.808594 C 545.429688 101.300781 589.914062 145.78125 634.398438 136.5 C 667.867188 129.589844 693.78125 95.460938 690.542969 63.289062 C 688.167969 40.621094 671.105469 17.300781 649.511719 6.710938 C 636.339844 0.449219 616.042969 -1.058594 602.652344 3.261719 Z M 602.652344 3.261719 "/>
<path fill-rule="nonzero" fill="rgb(0%, 0%, 0%)" fill-opacity="1" d="M 879.058594 3.261719 C 856.386719 10.820312 835.871094 33.710938 831.121094 56.808594 C 821.835938 101.300781 866.320312 145.78125 910.804688 136.5 C 944.273438 129.589844 970.1875 95.460938 966.949219 63.289062 C 964.574219 40.621094 947.515625 17.300781 925.917969 6.710938 C 912.746094 0.449219 892.449219 -1.058594 879.058594 3.261719 Z M 879.058594 3.261719 "/>
<path fill-rule="nonzero" fill="rgb(0%, 0%, 0%)" fill-opacity="1" d="M 1155.460938 3.261719 C 1132.789062 10.820312 1112.28125 33.710938 1107.53125 56.808594 C 1098.238281 101.300781 1142.730469 145.78125 1187.210938 136.5 C 1220.679688 129.589844 1246.589844 95.460938 1243.359375 63.289062 C 1240.980469 40.621094 1223.921875 17.300781 1202.320312 6.710938 C 1189.148438 0.449219 1168.859375 -1.058594 1155.460938 3.261719 Z M 1155.460938 3.261719 "/>
<path fill-rule="nonzero" fill="rgb(0%, 0%, 0%)" fill-opacity="1" d="M 1431.878906 3.261719 C 1409.199219 10.820312 1388.679688 33.710938 1383.929688 56.808594 C 1374.648438 101.300781 1419.128906 145.78125 1463.621094 136.5 C 1497.089844 129.589844 1523 95.460938 1519.761719 63.289062 C 1517.390625 40.621094 1500.328125 17.300781 1478.730469 6.710938 C 1465.558594 0.449219 1445.261719 -1.058594 1431.878906 3.261719 Z M 1431.878906 3.261719 "/>
<path fill-rule="nonzero" fill="rgb(0%, 0%, 0%)" fill-opacity="1" d="M 1708.28125 3.261719 C 1685.609375 10.820312 1665.089844 33.710938 1660.339844 56.808594 C 1651.058594 101.300781 1695.539062 145.78125 1740.019531 136.5 C 1773.5 129.589844 1799.410156 95.460938 1796.171875 63.289062 C 1793.789062 40.621094 1776.730469 17.300781 1755.140625 6.710938 C 1741.96875 0.449219 1721.671875 -1.058594 1708.28125 3.261719 Z M 1708.28125 3.261719 "/>
<path fill-rule="nonzero" fill="rgb(0%, 0%, 0%)" fill-opacity="1" d="M 1984.691406 3.261719 C 1962.011719 10.820312 1941.5 33.710938 1936.75 56.808594 C 1927.460938 101.300781 1971.949219 145.78125 2016.429688 136.5 C 2049.898438 129.589844 2075.808594 95.460938 2072.570312 63.289062 C 2070.199219 40.621094 2053.140625 17.300781 2031.550781 6.710938 C 2018.378906 0.449219 1998.070312 -1.058594 1984.691406 3.261719 Z M 1984.691406 3.261719 "/>
<path fill-rule="nonzero" fill="rgb(0%, 0%, 0%)" fill-opacity="1" d="M 2261.089844 3.261719 C 2238.421875 10.820312 2217.898438 33.710938 2213.148438 56.808594 C 2207.75 82.078125 2220.058594 109.5 2243.820312 125.699219 C 2266.921875 141.679688 2293.269531 141.890625 2316.589844 126.351562 C 2354.808594 100.871094 2360 53.359375 2328.039062 21.609375 C 2309.679688 3.039062 2283.339844 -4.078125 2261.089844 3.261719 Z M 2261.089844 3.261719 "/>
<path fill-rule="nonzero" fill="rgb(0%, 0%, 0%)" fill-opacity="1" d="M 2537.5 3.261719 C 2514.820312 10.820312 2494.308594 33.710938 2489.558594 56.808594 C 2484.160156 82.078125 2496.46875 109.5 2520.21875 125.699219 C 2543.328125 141.679688 2569.679688 141.890625 2593 126.351562 C 2631.21875 100.871094 2636.398438 53.359375 2604.441406 21.609375 C 2586.089844 3.039062 2559.738281 -4.078125 2537.5 3.261719 Z M 2537.5 3.261719 "/>
<path fill-rule="nonzero" fill="rgb(0%, 0%, 0%)" fill-opacity="1" d="M 49.839844 279.671875 C 27.167969 287.230469 6.652344 310.121094 1.902344 333.21875 C -7.382812 377.710938 37.101562 422.191406 81.585938 412.910156 C 115.054688 406 140.96875 371.871094 137.730469 339.699219 C 135.355469 317.03125 118.292969 293.699219 96.699219 283.121094 C 83.527344 276.859375 63.230469 275.351562 49.839844 279.671875 Z M 49.839844 279.671875 "/>
<path fill-rule="nonzero" fill="rgb(0%, 0%, 0%)" fill-opacity="1" d="M 326.246094 279.671875 C 293.640625 290.460938 271.613281 326.308594 278.308594 357.839844 C 283.707031 383.53125 307.675781 407.511719 333.15625 412.910156 C 375.050781 421.761719 418.453125 382.238281 414.136719 339.699219 C 411.761719 317.03125 394.699219 293.699219 373.105469 283.121094 C 359.933594 276.859375 339.636719 275.351562 326.246094 279.671875 Z M 326.246094 279.671875 "/>
<path fill-rule="nonzero" fill="rgb(0%, 0%, 0%)" fill-opacity="1" d="M 602.652344 279.671875 C 579.980469 287.230469 559.464844 310.121094 554.714844 333.21875 C 545.429688 377.710938 589.914062 422.191406 634.398438 412.910156 C 667.867188 406 693.78125 371.871094 690.542969 339.699219 C 688.167969 317.03125 671.105469 293.699219 649.511719 283.121094 C 636.339844 276.859375 616.042969 275.351562 602.652344 279.671875 Z M 602.652344 279.671875 "/>
<path fill-rule="nonzero" fill="rgb(0%, 0%, 0%)" fill-opacity="1" d="M 879.058594 279.671875 C 856.386719 287.230469 835.871094 310.121094 831.121094 333.21875 C 821.835938 377.710938 866.320312 422.191406 910.804688 412.910156 C 944.273438 406 970.1875 371.871094 966.949219 339.699219 C 964.574219 317.03125 947.515625 293.699219 925.917969 283.121094 C 912.746094 276.859375 892.449219 275.351562 879.058594 279.671875 Z M 879.058594 279.671875 "/>
<path fill-rule="nonzero" fill="rgb(0%, 0%, 0%)" fill-opacity="1" d="M 1155.460938 279.671875 C 1132.789062 287.230469 1112.28125 310.121094 1107.53125 333.21875 C 1098.238281 377.710938 1142.730469 422.191406 1187.210938 412.910156 C 1220.679688 406 1246.589844 371.871094 1243.359375 339.699219 C 1240.980469 317.03125 1223.921875 293.699219 1202.320312 283.121094 C 1189.148438 276.859375 1168.859375 275.351562 1155.460938 279.671875 Z M 1155.460938 279.671875 "/>
<path fill-rule="nonzero" fill="rgb(0%, 0%, 0%)" fill-opacity="1" d="M 1431.878906 279.671875 C 1409.199219 287.230469 1388.679688 310.121094 1383.929688 333.21875 C 1374.648438 377.710938 1419.128906 422.191406 1463.621094 412.910156 C 1497.089844 406 1523 371.871094 1519.761719 339.699219 C 1517.390625 317.03125 1500.328125 293.699219 1478.730469 283.121094 C 1465.558594 276.859375 1445.261719 275.351562 1431.878906 279.671875 Z M 1431.878906 279.671875 "/>
<path fill-rule="nonzero" fill="rgb(0%, 0%, 0%)" fill-opacity="1" d="M 1708.28125 279.671875 C 1685.609375 287.230469 1665.089844 310.121094 1660.339844 333.21875 C 1651.058594 377.710938 1695.539062 422.191406 1740.019531 412.910156 C 1773.5 406 1799.410156 371.871094 1796.171875 339.699219 C 1793.789062 317.03125 1776.730469 293.699219 1755.140625 283.121094 C 1741.96875 276.859375 1721.671875 275.351562 1708.28125 279.671875 Z M 1708.28125 279.671875 "/>
<path fill-rule="nonzero" fill="rgb(0%, 0%, 0%)" fill-opacity="1" d="M 1984.691406 279.671875 C 1962.011719 287.230469 1941.5 310.121094 1936.75 333.21875 C 1927.460938 377.710938 1971.949219 422.191406 2016.429688 412.910156 C 2049.898438 406 2075.808594 371.871094 2072.570312 339.699219 C 2070.199219 317.03125 2053.140625 293.699219 2031.550781 283.121094 C 2018.378906 276.859375 1998.070312 275.351562 1984.691406 279.671875 Z M 1984.691406 279.671875 "/>
<path fill-rule="nonzero" fill="rgb(0%, 0%, 0%)" fill-opacity="1" d="M 2261.089844 279.671875 C 2238.421875 287.230469 2217.898438 310.121094 2213.148438 333.21875 C 2207.75 358.488281 2220.058594 385.910156 2243.820312 402.109375 C 2266.921875 418.089844 2293.269531 418.308594 2316.589844 402.75 C 2354.808594 377.269531 2360 329.769531 2328.039062 298.019531 C 2309.679688 279.449219 2283.339844 272.320312 2261.089844 279.671875 Z M 2261.089844 279.671875 "/>
<path fill-rule="nonzero" fill="rgb(0%, 0%, 0%)" fill-opacity="1" d="M 2537.5 279.671875 C 2514.820312 287.230469 2494.308594 310.121094 2489.558594 333.21875 C 2484.160156 358.488281 2496.46875 385.910156 2520.21875 402.109375 C 2543.328125 418.089844 2569.679688 418.308594 2593 402.75 C 2631.21875 377.269531 2636.398438 329.769531 2604.441406 298.019531 C 2586.089844 279.449219 2559.738281 272.320312 2537.5 279.671875 Z M 2537.5 279.671875 "/>
<path fill-rule="nonzero" fill="rgb(0%, 0%, 0%)" fill-opacity="1" d="M 49.839844 556.070312 C 27.167969 563.628906 6.652344 586.519531 1.902344 609.628906 C -7.382812 654.109375 37.101562 698.601562 81.585938 689.308594 C 115.054688 682.398438 140.96875 648.28125 137.730469 616.109375 C 135.355469 593.429688 118.292969 570.109375 96.699219 559.53125 C 83.527344 553.269531 63.230469 551.761719 49.839844 556.070312 Z M 49.839844 556.070312 "/>
<path fill-rule="nonzero" fill="rgb(0%, 0%, 0%)" fill-opacity="1" d="M 326.246094 556.070312 C 303.574219 563.628906 283.058594 586.519531 278.308594 609.628906 C 269.023438 654.109375 313.507812 698.601562 357.992188 689.308594 C 391.460938 682.398438 417.375 648.28125 414.136719 616.109375 C 411.761719 593.429688 394.699219 570.109375 373.105469 559.53125 C 359.933594 553.269531 339.636719 551.761719 326.246094 556.070312 Z M 326.246094 556.070312 "/>
<path fill-rule="nonzero" fill="rgb(0%, 0%, 0%)" fill-opacity="1" d="M 602.652344 556.070312 C 579.980469 563.628906 559.464844 586.519531 554.714844 609.628906 C 545.429688 654.109375 589.914062 698.601562 634.398438 689.308594 C 667.867188 682.398438 693.78125 648.28125 690.542969 616.109375 C 688.167969 593.429688 671.105469 570.109375 649.511719 559.53125 C 636.339844 553.269531 616.042969 551.761719 602.652344 556.070312 Z M 602.652344 556.070312 "/>
<path fill-rule="nonzero" fill="rgb(0%, 0%, 0%)" fill-opacity="1" d="M 879.058594 556.070312 C 856.386719 563.628906 835.871094 586.519531 831.121094 609.628906 C 821.835938 654.109375 866.320312 698.601562 910.804688 689.308594 C 944.273438 682.398438 970.1875 648.28125 966.949219 616.109375 C 964.574219 593.429688 947.515625 570.109375 925.917969 559.53125 C 912.746094 553.269531 892.449219 551.761719 879.058594 556.070312 Z M 879.058594 556.070312 "/>
<path fill-rule="nonzero" fill="rgb(0%, 0%, 0%)" fill-opacity="1" d="M 1155.460938 556.070312 C 1132.789062 563.628906 1112.28125 586.519531 1107.53125 609.628906 C 1098.238281 654.109375 1142.730469 698.601562 1187.210938 689.308594 C 1220.679688 682.398438 1246.589844 648.28125 1243.359375 616.109375 C 1240.980469 593.429688 1223.921875 570.109375 1202.320312 559.53125 C 1189.148438 553.269531 1168.859375 551.761719 1155.460938 556.070312 Z M 1155.460938 556.070312 "/>
<path fill-rule="nonzero" fill="rgb(0%, 0%, 0%)" fill-opacity="1" d="M 1431.878906 556.070312 C 1409.199219 563.628906 1388.679688 586.519531 1383.929688 609.628906 C 1374.648438 654.109375 1419.128906 698.601562 1463.621094 689.308594 C 1497.089844 682.398438 1523 648.28125 1519.761719 616.109375 C 1517.390625 593.429688 1500.328125 570.109375 1478.730469 559.53125 C 1465.558594 553.269531 1445.261719 551.761719 1431.878906 556.070312 Z M 1431.878906 556.070312 "/>
<path fill-rule="nonzero" fill="rgb(0%, 0%, 0%)" fill-opacity="1" d="M 1708.28125 556.070312 C 1685.609375 563.628906 1665.089844 586.519531 1660.339844 609.628906 C 1651.058594 654.109375 1695.539062 698.601562 1740.019531 689.308594 C 1773.5 682.398438 1799.410156 648.28125 1796.171875 616.109375 C 1793.789062 593.429688 1776.730469 570.109375 1755.140625 559.53125 C 1741.96875 553.269531 1721.671875 551.761719 1708.28125 556.070312 Z M 1708.28125 556.070312 "/>
<path fill-rule="nonzero" fill="rgb(0%, 0%, 0%)" fill-opacity="1" d="M 1984.691406 556.070312 C 1962.011719 563.628906 1941.5 586.519531 1936.75 609.628906 C 1927.460938 654.109375 1971.949219 698.601562 2016.429688 689.308594 C 2049.898438 682.398438 2075.808594 648.28125 2072.570312 616.109375 C 2070.199219 593.429688 2053.140625 570.109375 2031.550781 559.53125 C 2018.378906 553.269531 1998.070312 551.761719 1984.691406 556.070312 Z M 1984.691406 556.070312 "/>
<path fill-rule="nonzero" fill="rgb(0%, 0%, 0%)" fill-opacity="1" d="M 2261.089844 556.070312 C 2238.421875 563.628906 2217.898438 586.519531 2213.148438 609.628906 C 2203.871094 654.109375 2248.351562 698.601562 2292.839844 689.308594 C 2326.308594 682.398438 2352.21875 648.28125 2348.980469 616.109375 C 2346.609375 593.429688 2329.550781 570.109375 2307.949219 559.53125 C 2294.78125 553.269531 2274.480469 551.761719 2261.089844 556.070312 Z M 2261.089844 556.070312 "/>
<path fill-rule="nonzero" fill="rgb(0%, 0%, 0%)" fill-opacity="1" d="M 2537.5 556.070312 C 2514.820312 563.628906 2494.308594 586.519531 2489.558594 609.628906 C 2480.269531 654.109375 2524.761719 698.601562 2569.238281 689.308594 C 2602.71875 682.398438 2628.628906 648.28125 2625.390625 616.109375 C 2623.011719 593.429688 2605.949219 570.109375 2584.359375 559.53125 C 2571.191406 553.269531 2550.890625 551.761719 2537.5 556.070312 Z M 2537.5 556.070312 "/>
<path fill-rule="nonzero" fill="rgb(0%, 0%, 0%)" fill-opacity="1" d="M 49.839844 832.480469 C 27.167969 840.039062 6.652344 862.929688 1.902344 886.039062 C -7.382812 930.519531 37.101562 975.011719 81.585938 965.71875 C 115.054688 958.808594 140.96875 924.691406 137.730469 892.519531 C 135.355469 869.839844 118.292969 846.519531 96.699219 835.941406 C 83.527344 829.679688 63.230469 828.160156 49.839844 832.480469 Z M 49.839844 832.480469 "/>
<path fill-rule="nonzero" fill="rgb(0%, 0%, 0%)" fill-opacity="1" d="M 326.246094 832.480469 C 303.574219 840.039062 283.058594 862.929688 278.308594 886.039062 C 269.023438 930.519531 313.507812 975.011719 357.992188 965.71875 C 391.460938 958.808594 417.375 924.691406 414.136719 892.519531 C 411.761719 869.839844 394.699219 846.519531 373.105469 835.941406 C 359.933594 829.679688 339.636719 828.160156 326.246094 832.480469 Z M 326.246094 832.480469 "/>
<path fill-rule="nonzero" fill="rgb(0%, 0%, 0%)" fill-opacity="1" d="M 602.652344 832.480469 C 579.980469 840.039062 559.464844 862.929688 554.714844 886.039062 C 545.429688 930.519531 589.914062 975.011719 634.398438 965.71875 C 667.867188 958.808594 693.78125 924.691406 690.542969 892.519531 C 688.167969 869.839844 671.105469 846.519531 649.511719 835.941406 C 636.339844 829.679688 616.042969 828.160156 602.652344 832.480469 Z M 602.652344 832.480469 "/>
<path fill-rule="nonzero" fill="rgb(0%, 0%, 0%)" fill-opacity="1" d="M 879.058594 832.480469 C 856.386719 840.039062 835.871094 862.929688 831.121094 886.039062 C 821.835938 930.519531 866.320312 975.011719 910.804688 965.71875 C 944.273438 958.808594 970.1875 924.691406 966.949219 892.519531 C 964.574219 869.839844 947.515625 846.519531 925.917969 835.941406 C 912.746094 829.679688 892.449219 828.160156 879.058594 832.480469 Z M 879.058594 832.480469 "/>
<path fill-rule="nonzero" fill="rgb(0%, 0%, 0%)" fill-opacity="1" d="M 1155.460938 832.480469 C 1132.789062 840.039062 1112.28125 862.929688 1107.53125 886.039062 C 1098.238281 930.519531 1142.730469 975.011719 1187.210938 965.71875 C 1220.679688 958.808594 1246.589844 924.691406 1243.359375 892.519531 C 1240.980469 869.839844 1223.921875 846.519531 1202.320312 835.941406 C 1189.148438 829.679688 1168.859375 828.160156 1155.460938 832.480469 Z M 1155.460938 832.480469 "/>
<path fill-rule="nonzero" fill="rgb(0%, 0%, 0%)" fill-opacity="1" d="M 1431.878906 832.480469 C 1409.199219 840.039062 1388.679688 862.929688 1383.929688 886.039062 C 1374.648438 930.519531 1419.128906 975.011719 1463.621094 965.71875 C 1497.089844 958.808594 1523 924.691406 1519.761719 892.519531 C 1517.390625 869.839844 1500.328125 846.519531 1478.730469 835.941406 C 1465.558594 829.679688 1445.261719 828.160156 1431.878906 832.480469 Z M 1431.878906 832.480469 "/>
<path fill-rule="nonzero" fill="rgb(0%, 0%, 0%)" fill-opacity="1" d="M 1708.28125 832.480469 C 1685.609375 840.039062 1665.089844 862.929688 1660.339844 886.039062 C 1651.058594 930.519531 1695.539062 975.011719 1740.019531 965.71875 C 1773.5 958.808594 1799.410156 924.691406 1796.171875 892.519531 C 1793.789062 869.839844 1776.730469 846.519531 1755.140625 835.941406 C 1741.96875 829.679688 1721.671875 828.160156 1708.28125 832.480469 Z M 1708.28125 832.480469 "/>
<path fill-rule="nonzero" fill="rgb(0%, 0%, 0%)" fill-opacity="1" d="M 1984.691406 832.480469 C 1962.011719 840.039062 1941.5 862.929688 1936.75 886.039062 C 1927.460938 930.519531 1971.949219 975.011719 2016.429688 965.71875 C 2049.898438 958.808594 2075.808594 924.691406 2072.570312 892.519531 C 2070.199219 869.839844 2053.140625 846.519531 2031.550781 835.941406 C 2018.378906 829.679688 1998.070312 828.160156 1984.691406 832.480469 Z M 1984.691406 832.480469 "/>
<path fill-rule="nonzero" fill="rgb(0%, 0%, 0%)" fill-opacity="1" d="M 2261.089844 832.480469 C 2238.421875 840.039062 2217.898438 862.929688 2213.148438 886.039062 C 2203.871094 930.519531 2248.351562 975.011719 2292.839844 965.71875 C 2326.308594 958.808594 2352.21875 924.691406 2348.980469 892.519531 C 2346.609375 869.839844 2329.550781 846.519531 2307.949219 835.941406 C 2294.78125 829.679688 2274.480469 828.160156 2261.089844 832.480469 Z M 2261.089844 832.480469 "/>
<path fill-rule="nonzero" fill="rgb(0%, 0%, 0%)" fill-opacity="1" d="M 2537.5 832.480469 C 2514.820312 840.039062 2494.308594 862.929688 2489.558594 886.039062 C 2480.269531 930.519531 2524.761719 975.011719 2569.238281 965.71875 C 2602.71875 958.808594 2628.628906 924.691406 2625.390625 892.519531 C 2623.011719 869.839844 2605.949219 846.519531 2584.359375 835.941406 C 2571.191406 829.679688 2550.890625 828.160156 2537.5 832.480469 Z M 2537.5 832.480469 "/>
<path fill-rule="nonzero" fill="rgb(0%, 0%, 0%)" fill-opacity="1" d="M 49.839844 1108.890625 C 27.167969 1116.449219 6.652344 1139.339844 1.902344 1162.441406 C -7.382812 1206.929688 37.101562 1251.410156 81.585938 1242.128906 C 115.054688 1235.21875 140.96875 1201.101562 137.730469 1168.929688 C 135.355469 1146.25 118.292969 1122.929688 96.699219 1112.351562 C 83.527344 1106.089844 63.230469 1104.570312 49.839844 1108.890625 Z M 49.839844 1108.890625 "/>
<path fill-rule="nonzero" fill="rgb(0%, 0%, 0%)" fill-opacity="1" d="M 326.246094 1108.890625 C 303.574219 1116.449219 283.058594 1139.339844 278.308594 1162.441406 C 269.023438 1206.929688 313.507812 1251.410156 357.992188 1242.128906 C 391.460938 1235.21875 417.375 1201.101562 414.136719 1168.929688 C 411.761719 1146.25 394.699219 1122.929688 373.105469 1112.351562 C 359.933594 1106.089844 339.636719 1104.570312 326.246094 1108.890625 Z M 326.246094 1108.890625 "/>
<path fill-rule="nonzero" fill="rgb(0%, 0%, 0%)" fill-opacity="1" d="M 602.652344 1108.890625 C 579.980469 1116.449219 559.464844 1139.339844 554.714844 1162.441406 C 545.429688 1206.929688 589.914062 1251.410156 634.398438 1242.128906 C 667.867188 1235.21875 693.78125 1201.101562 690.542969 1168.929688 C 688.167969 1146.25 671.105469 1122.929688 649.511719 1112.351562 C 636.339844 1106.089844 616.042969 1104.570312 602.652344 1108.890625 Z M 602.652344 1108.890625 "/>
<path fill-rule="nonzero" fill="rgb(0%, 0%, 0%)" fill-opacity="1" d="M 879.058594 1108.890625 C 856.386719 1116.449219 835.871094 1139.339844 831.121094 1162.441406 C 821.835938 1206.929688 866.320312 1251.410156 910.804688 1242.128906 C 944.273438 1235.21875 970.1875 1201.101562 966.949219 1168.929688 C 964.574219 1146.25 947.515625 1122.929688 925.917969 1112.351562 C 912.746094 1106.089844 892.449219 1104.570312 879.058594 1108.890625 Z M 879.058594 1108.890625 "/>
<path fill-rule="nonzero" fill="rgb(0%, 0%, 0%)" fill-opacity="1" d="M 1155.460938 1108.890625 C 1132.789062 1116.449219 1112.28125 1139.339844 1107.53125 1162.441406 C 1098.238281 1206.929688 1142.730469 1251.410156 1187.210938 1242.128906 C 1220.679688 1235.21875 1246.589844 1201.101562 1243.359375 1168.929688 C 1240.980469 1146.25 1223.921875 1122.929688 1202.320312 1112.351562 C 1189.148438 1106.089844 1168.859375 1104.570312 1155.460938 1108.890625 Z M 1155.460938 1108.890625 "/>
<path fill-rule="nonzero" fill="rgb(0%, 0%, 0%)" fill-opacity="1" d="M 1431.878906 1108.890625 C 1409.199219 1116.449219 1388.679688 1139.339844 1383.929688 1162.441406 C 1374.648438 1206.929688 1419.128906 1251.410156 1463.621094 1242.128906 C 1497.089844 1235.21875 1523 1201.101562 1519.761719 1168.929688 C 1517.390625 1146.25 1500.328125 1122.929688 1478.730469 1112.351562 C 1465.558594 1106.089844 1445.261719 1104.570312 1431.878906 1108.890625 Z M 1431.878906 1108.890625 "/>
<path fill-rule="nonzero" fill="rgb(0%, 0%, 0%)" fill-opacity="1" d="M 1708.28125 1108.890625 C 1685.609375 1116.449219 1665.089844 1139.339844 1660.339844 1162.441406 C 1651.058594 1206.929688 1695.539062 1251.410156 1740.019531 1242.128906 C 1773.5 1235.21875 1799.410156 1201.101562 1796.171875 1168.929688 C 1793.789062 1146.25 1776.730469 1122.929688 1755.140625 1112.351562 C 1741.96875 1106.089844 1721.671875 1104.570312 1708.28125 1108.890625 Z M 1708.28125 1108.890625 "/>
<path fill-rule="nonzero" fill="rgb(0%, 0%, 0%)" fill-opacity="1" d="M 1984.691406 1108.890625 C 1962.011719 1116.449219 1941.5 1139.339844 1936.75 1162.441406 C 1927.460938 1206.929688 1971.949219 1251.410156 2016.429688 1242.128906 C 2049.898438 1235.21875 2075.808594 1201.101562 2072.570312 1168.929688 C 2070.199219 1146.25 2053.140625 1122.929688 2031.550781 1112.351562 C 2018.378906 1106.089844 1998.070312 1104.570312 1984.691406 1108.890625 Z M 1984.691406 1108.890625 "/>
<path fill-rule="nonzero" fill="rgb(0%, 0%, 0%)" fill-opacity="1" d="M 2261.089844 1108.890625 C 2238.421875 1116.449219 2217.898438 1139.339844 2213.148438 1162.441406 C 2203.871094 1206.929688 2248.351562 1251.410156 2292.839844 1242.128906 C 2326.308594 1235.21875 2352.21875 1201.101562 2348.980469 1168.929688 C 2346.609375 1146.25 2329.550781 1122.929688 2307.949219 1112.351562 C 2294.78125 1106.089844 2274.480469 1104.570312 2261.089844 1108.890625 Z M 2261.089844 1108.890625 "/>
<path fill-rule="nonzero" fill="rgb(0%, 0%, 0%)" fill-opacity="1" d="M 2537.5 1108.890625 C 2514.820312 1116.449219 2494.308594 1139.339844 2489.558594 1162.441406 C 2480.269531 1206.929688 2524.761719 1251.410156 2569.238281 1242.128906 C 2602.71875 1235.21875 2628.628906 1201.101562 2625.390625 1168.929688 C 2623.011719 1146.25 2605.949219 1122.929688 2584.359375 1112.351562 C 2571.191406 1106.089844 2550.890625 1104.570312 2537.5 1108.890625 Z M 2537.5 1108.890625 "/>
<path fill-rule="nonzero" fill="rgb(0%, 0%, 0%)" fill-opacity="1" d="M 49.839844 1385.300781 C 27.167969 1392.859375 6.652344 1415.75 1.902344 1438.859375 C -7.382812 1483.339844 37.101562 1527.820312 81.585938 1518.539062 C 115.054688 1511.628906 140.96875 1477.511719 137.730469 1445.328125 C 135.355469 1422.660156 118.292969 1399.339844 96.699219 1388.761719 C 83.527344 1382.488281 63.230469 1380.980469 49.839844 1385.300781 Z M 49.839844 1385.300781 "/>
<path fill-rule="nonzero" fill="rgb(0%, 0%, 0%)" fill-opacity="1" d="M 326.246094 1385.300781 C 303.574219 1392.859375 283.058594 1415.75 278.308594 1438.859375 C 269.023438 1483.339844 313.507812 1527.820312 357.992188 1518.539062 C 391.460938 1511.628906 417.375 1477.511719 414.136719 1445.328125 C 411.761719 1422.660156 394.699219 1399.339844 373.105469 1388.761719 C 359.933594 1382.488281 339.636719 1380.980469 326.246094 1385.300781 Z M 326.246094 1385.300781 "/>
<path fill-rule="nonzero" fill="rgb(0%, 0%, 0%)" fill-opacity="1" d="M 602.652344 1385.300781 C 579.980469 1392.859375 559.464844 1415.75 554.714844 1438.859375 C 545.429688 1483.339844 589.914062 1527.820312 634.398438 1518.539062 C 667.867188 1511.628906 693.78125 1477.511719 690.542969 1445.328125 C 688.167969 1422.660156 671.105469 1399.339844 649.511719 1388.761719 C 636.339844 1382.488281 616.042969 1380.980469 602.652344 1385.300781 Z M 602.652344 1385.300781 "/>
<path fill-rule="nonzero" fill="rgb(0%, 0%, 0%)" fill-opacity="1" d="M 879.058594 1385.300781 C 856.386719 1392.859375 835.871094 1415.75 831.121094 1438.859375 C 821.835938 1483.339844 866.320312 1527.820312 910.804688 1518.539062 C 944.273438 1511.628906 970.1875 1477.511719 966.949219 1445.328125 C 964.574219 1422.660156 947.515625 1399.339844 925.917969 1388.761719 C 912.746094 1382.488281 892.449219 1380.980469 879.058594 1385.300781 Z M 879.058594 1385.300781 "/>
<path fill-rule="nonzero" fill="rgb(0%, 0%, 0%)" fill-opacity="1" d="M 1155.460938 1385.300781 C 1132.789062 1392.859375 1112.28125 1415.75 1107.53125 1438.859375 C 1098.238281 1483.339844 1142.730469 1527.820312 1187.210938 1518.539062 C 1220.679688 1511.628906 1246.589844 1477.511719 1243.359375 1445.328125 C 1240.980469 1422.660156 1223.921875 1399.339844 1202.320312 1388.761719 C 1189.148438 1382.488281 1168.859375 1380.980469 1155.460938 1385.300781 Z M 1155.460938 1385.300781 "/>
<path fill-rule="nonzero" fill="rgb(0%, 0%, 0%)" fill-opacity="1" d="M 1431.878906 1385.300781 C 1409.199219 1392.859375 1388.679688 1415.75 1383.929688 1438.859375 C 1374.648438 1483.339844 1419.128906 1527.820312 1463.621094 1518.539062 C 1497.089844 1511.628906 1523 1477.511719 1519.761719 1445.328125 C 1517.390625 1422.660156 1500.328125 1399.339844 1478.730469 1388.761719 C 1465.558594 1382.488281 1445.261719 1380.980469 1431.878906 1385.300781 Z M 1431.878906 1385.300781 "/>
<path fill-rule="nonzero" fill="rgb(0%, 0%, 0%)" fill-opacity="1" d="M 1708.28125 1385.300781 C 1685.609375 1392.859375 1665.089844 1415.75 1660.339844 1438.859375 C 1651.058594 1483.339844 1695.539062 1527.820312 1740.019531 1518.539062 C 1773.5 1511.628906 1799.410156 1477.511719 1796.171875 1445.328125 C 1793.789062 1422.660156 1776.730469 1399.339844 1755.140625 1388.761719 C 1741.96875 1382.488281 1721.671875 1380.980469 1708.28125 1385.300781 Z M 1708.28125 1385.300781 "/>
<path fill-rule="nonzero" fill="rgb(0%, 0%, 0%)" fill-opacity="1" d="M 1984.691406 1385.300781 C 1962.011719 1392.859375 1941.5 1415.75 1936.75 1438.859375 C 1927.460938 1483.339844 1971.949219 1527.820312 2016.429688 1518.539062 C 2049.898438 1511.628906 2075.808594 1477.511719 2072.570312 1445.328125 C 2070.199219 1422.660156 2053.140625 1399.339844 2031.550781 1388.761719 C 2018.378906 1382.488281 1998.070312 1380.980469 1984.691406 1385.300781 Z M 1984.691406 1385.300781 "/>
<path fill-rule="nonzero" fill="rgb(0%, 0%, 0%)" fill-opacity="1" d="M 2261.089844 1385.300781 C 2238.421875 1392.859375 2217.898438 1415.75 2213.148438 1438.859375 C 2203.871094 1483.339844 2248.351562 1527.820312 2292.839844 1518.539062 C 2326.308594 1511.628906 2352.21875 1477.511719 2348.980469 1445.328125 C 2346.609375 1422.660156 2329.550781 1399.339844 2307.949219 1388.761719 C 2294.78125 1382.488281 2274.480469 1380.980469 2261.089844 1385.300781 Z M 2261.089844 1385.300781 "/>
<path fill-rule="nonzero" fill="rgb(0%, 0%, 0%)" fill-opacity="1" d="M 2537.5 1385.300781 C 2514.820312 1392.859375 2494.308594 1415.75 2489.558594 1438.859375 C 2480.269531 1483.339844 2524.761719 1527.820312 2569.238281 1518.539062 C 2602.71875 1511.628906 2628.628906 1477.511719 2625.390625 1445.328125 C 2623.011719 1422.660156 2605.949219 1399.339844 2584.359375 1388.761719 C 2571.191406 1382.488281 2550.890625 1380.980469 2537.5 1385.300781 Z M 2537.5 1385.300781 "/>
<path fill-rule="nonzero" fill="rgb(0%, 0%, 0%)" fill-opacity="1" d="M 49.839844 1661.710938 C 27.167969 1669.269531 6.652344 1692.15625 1.902344 1715.265625 C -7.382812 1759.75 37.101562 1804.234375 81.585938 1794.949219 C 115.054688 1788.039062 140.96875 1753.917969 137.730469 1721.742188 C 135.355469 1699.066406 118.292969 1675.746094 96.699219 1665.164062 C 83.527344 1658.902344 63.230469 1657.390625 49.839844 1661.710938 Z M 49.839844 1661.710938 "/>
<path fill-rule="nonzero" fill="rgb(0%, 0%, 0%)" fill-opacity="1" d="M 326.246094 1661.710938 C 303.574219 1669.269531 283.058594 1692.15625 278.308594 1715.265625 C 269.023438 1759.75 313.507812 1804.234375 357.992188 1794.949219 C 391.460938 1788.039062 417.375 1753.917969 414.136719 1721.742188 C 411.761719 1699.066406 394.699219 1675.746094 373.105469 1665.164062 C 359.933594 1658.902344 339.636719 1657.390625 326.246094 1661.710938 Z M 326.246094 1661.710938 "/>
<path fill-rule="nonzero" fill="rgb(0%, 0%, 0%)" fill-opacity="1" d="M 602.652344 1661.710938 C 579.980469 1669.269531 559.464844 1692.15625 554.714844 1715.265625 C 549.316406 1740.53125 561.625 1767.953125 585.378906 1784.148438 C 608.484375 1800.128906 634.828125 1800.347656 658.152344 1784.796875 C 696.371094 1759.316406 701.554688 1711.808594 669.597656 1680.066406 C 651.242188 1661.492188 624.894531 1654.367188 602.652344 1661.710938 Z M 602.652344 1661.710938 "/>
<path fill-rule="nonzero" fill="rgb(0%, 0%, 0%)" fill-opacity="1" d="M 879.058594 1661.710938 C 856.386719 1669.269531 835.871094 1692.15625 831.121094 1715.265625 C 825.722656 1740.53125 838.03125 1767.953125 861.785156 1784.148438 C 884.890625 1800.128906 911.234375 1800.347656 934.558594 1784.796875 C 972.777344 1759.316406 977.960938 1711.808594 946.003906 1680.066406 C 927.648438 1661.492188 901.300781 1654.367188 879.058594 1661.710938 Z M 879.058594 1661.710938 "/>
<path fill-rule="nonzero" fill="rgb(0%, 0%, 0%)" fill-opacity="1" d="M 1155.460938 1661.710938 C 1122.859375 1672.507812 1100.828125 1708.355469 1107.53125 1739.882812 C 1112.929688 1765.578125 1136.890625 1789.546875 1162.589844 1794.949219 C 1204.269531 1803.800781 1247.679688 1764.285156 1243.359375 1721.742188 C 1240.980469 1699.066406 1223.921875 1675.746094 1202.320312 1665.164062 C 1189.148438 1658.902344 1168.859375 1657.390625 1155.460938 1661.710938 Z M 1155.460938 1661.710938 "/>
<path fill-rule="nonzero" fill="rgb(0%, 0%, 0%)" fill-opacity="1" d="M 1431.878906 1661.710938 C 1399.269531 1672.507812 1377.238281 1708.355469 1383.929688 1739.882812 C 1389.328125 1765.578125 1413.300781 1789.546875 1439 1794.949219 C 1480.679688 1803.800781 1524.078125 1764.285156 1519.761719 1721.742188 C 1517.390625 1699.066406 1500.328125 1675.746094 1478.730469 1665.164062 C 1465.558594 1658.902344 1445.261719 1657.390625 1431.878906 1661.710938 Z M 1431.878906 1661.710938 "/>
<path fill-rule="nonzero" fill="rgb(0%, 0%, 0%)" fill-opacity="1" d="M 1708.28125 1661.710938 C 1675.671875 1672.507812 1653.640625 1708.355469 1660.339844 1739.882812 C 1665.738281 1765.578125 1689.710938 1789.546875 1715.410156 1794.949219 C 1757.078125 1803.800781 1800.488281 1764.285156 1796.171875 1721.742188 C 1793.789062 1699.066406 1776.730469 1675.746094 1755.140625 1665.164062 C 1741.96875 1658.902344 1721.671875 1657.390625 1708.28125 1661.710938 Z M 1708.28125 1661.710938 "/>
<path fill-rule="nonzero" fill="rgb(0%, 0%, 0%)" fill-opacity="1" d="M 1984.691406 1661.710938 C 1952.078125 1672.507812 1930.050781 1708.355469 1936.75 1739.882812 C 1942.140625 1765.578125 1966.109375 1789.546875 1991.808594 1794.949219 C 2033.488281 1803.800781 2076.890625 1764.285156 2072.570312 1721.742188 C 2070.199219 1699.066406 2053.140625 1675.746094 2031.550781 1665.164062 C 2018.378906 1658.902344 1998.070312 1657.390625 1984.691406 1661.710938 Z M 1984.691406 1661.710938 "/>
<path fill-rule="nonzero" fill="rgb(0%, 0%, 0%)" fill-opacity="1" d="M 2261.089844 1661.710938 C 2238.421875 1669.269531 2217.898438 1692.15625 2213.148438 1715.265625 C 2203.871094 1759.75 2248.351562 1804.234375 2292.839844 1794.949219 C 2326.308594 1788.039062 2352.21875 1753.917969 2348.980469 1721.742188 C 2346.609375 1699.066406 2329.550781 1675.746094 2307.949219 1665.164062 C 2294.78125 1658.902344 2274.480469 1657.390625 2261.089844 1661.710938 Z M 2261.089844 1661.710938 "/>
<path fill-rule="nonzero" fill="rgb(0%, 0%, 0%)" fill-opacity="1" d="M 2537.5 1661.710938 C 2514.820312 1669.269531 2494.308594 1692.15625 2489.558594 1715.265625 C 2480.269531 1759.75 2524.761719 1804.234375 2569.238281 1794.949219 C 2602.71875 1788.039062 2628.628906 1753.917969 2625.390625 1721.742188 C 2623.011719 1699.066406 2605.949219 1675.746094 2584.359375 1665.164062 C 2571.191406 1658.902344 2550.890625 1657.390625 2537.5 1661.710938 Z M 2537.5 1661.710938 "/>
<path fill-rule="nonzero" fill="rgb(0%, 0%, 0%)" fill-opacity="1" d="M 49.839844 1938.117188 C 27.167969 1945.675781 6.652344 1968.566406 1.902344 1991.671875 C -7.382812 2036.15625 37.101562 2080.640625 81.585938 2071.355469 C 115.054688 2064.445312 140.96875 2030.328125 137.730469 1998.152344 C 135.355469 1975.476562 118.292969 1952.15625 96.699219 1941.574219 C 83.527344 1935.3125 63.230469 1933.800781 49.839844 1938.117188 Z M 49.839844 1938.117188 "/>
<path fill-rule="nonzero" fill="rgb(0%, 0%, 0%)" fill-opacity="1" d="M 326.246094 1938.117188 C 303.574219 1945.675781 283.058594 1968.566406 278.308594 1991.671875 C 269.023438 2036.15625 313.507812 2080.640625 357.992188 2071.355469 C 391.460938 2064.445312 417.375 2030.328125 414.136719 1998.152344 C 411.761719 1975.476562 394.699219 1952.15625 373.105469 1941.574219 C 359.933594 1935.3125 339.636719 1933.800781 326.246094 1938.117188 Z M 326.246094 1938.117188 "/>
<path fill-rule="nonzero" fill="rgb(0%, 0%, 0%)" fill-opacity="1" d="M 602.652344 1938.117188 C 579.980469 1945.675781 559.464844 1968.566406 554.714844 1991.671875 C 549.316406 2016.9375 561.625 2044.363281 585.378906 2060.558594 C 608.484375 2076.539062 634.828125 2076.753906 658.152344 2061.207031 C 696.371094 2035.726562 701.554688 1988.21875 669.597656 1956.472656 C 651.242188 1937.902344 624.894531 1930.777344 602.652344 1938.117188 Z M 602.652344 1938.117188 "/>
<path fill-rule="nonzero" fill="rgb(0%, 0%, 0%)" fill-opacity="1" d="M 879.058594 1938.117188 C 856.386719 1945.675781 835.871094 1968.566406 831.121094 1991.671875 C 825.722656 2016.9375 838.03125 2044.363281 861.785156 2060.558594 C 884.890625 2076.539062 911.234375 2076.753906 934.558594 2061.207031 C 972.777344 2035.726562 977.960938 1988.21875 946.003906 1956.472656 C 927.648438 1937.902344 901.300781 1930.777344 879.058594 1938.117188 Z M 879.058594 1938.117188 "/>
<path fill-rule="nonzero" fill="rgb(0%, 0%, 0%)" fill-opacity="1" d="M 1155.460938 1938.117188 C 1122.859375 1948.914062 1100.828125 1984.761719 1107.53125 2016.289062 C 1112.929688 2041.988281 1136.890625 2065.957031 1162.589844 2071.355469 C 1204.269531 2080.210938 1247.679688 2040.691406 1243.359375 1998.152344 C 1240.980469 1975.476562 1223.921875 1952.15625 1202.320312 1941.574219 C 1189.148438 1935.3125 1168.859375 1933.800781 1155.460938 1938.117188 Z M 1155.460938 1938.117188 "/>
<path fill-rule="nonzero" fill="rgb(0%, 0%, 0%)" fill-opacity="1" d="M 1431.878906 1938.117188 C 1399.269531 1948.914062 1377.238281 1984.761719 1383.929688 2016.289062 C 1389.328125 2041.988281 1413.300781 2065.957031 1439 2071.355469 C 1480.679688 2080.210938 1524.078125 2040.691406 1519.761719 1998.152344 C 1517.390625 1975.476562 1500.328125 1952.15625 1478.730469 1941.574219 C 1465.558594 1935.3125 1445.261719 1933.800781 1431.878906 1938.117188 Z M 1431.878906 1938.117188 "/>
<path fill-rule="nonzero" fill="rgb(0%, 0%, 0%)" fill-opacity="1" d="M 1708.28125 1938.117188 C 1675.671875 1948.914062 1653.640625 1984.761719 1660.339844 2016.289062 C 1665.738281 2041.988281 1689.710938 2065.957031 1715.410156 2071.355469 C 1757.078125 2080.210938 1800.488281 2040.691406 1796.171875 1998.152344 C 1793.789062 1975.476562 1776.730469 1952.15625 1755.140625 1941.574219 C 1741.96875 1935.3125 1721.671875 1933.800781 1708.28125 1938.117188 Z M 1708.28125 1938.117188 "/>
<path fill-rule="nonzero" fill="rgb(0%, 0%, 0%)" fill-opacity="1" d="M 1984.691406 1938.117188 C 1952.078125 1948.914062 1930.050781 1984.761719 1936.75 2016.289062 C 1942.140625 2041.988281 1966.109375 2065.957031 1991.808594 2071.355469 C 2033.488281 2080.210938 2076.890625 2040.691406 2072.570312 1998.152344 C 2070.199219 1975.476562 2053.140625 1952.15625 2031.550781 1941.574219 C 2018.378906 1935.3125 1998.070312 1933.800781 1984.691406 1938.117188 Z M 1984.691406 1938.117188 "/>
<path fill-rule="nonzero" fill="rgb(0%, 0%, 0%)" fill-opacity="1" d="M 2261.089844 1938.117188 C 2238.421875 1945.675781 2217.898438 1968.566406 2213.148438 1991.671875 C 2203.871094 2036.15625 2248.351562 2080.640625 2292.839844 2071.355469 C 2326.308594 2064.445312 2352.21875 2030.328125 2348.980469 1998.152344 C 2346.609375 1975.476562 2329.550781 1952.15625 2307.949219 1941.574219 C 2294.78125 1935.3125 2274.480469 1933.800781 2261.089844 1938.117188 Z M 2261.089844 1938.117188 "/>
<path fill-rule="nonzero" fill="rgb(0%, 0%, 0%)" fill-opacity="1" d="M 2537.5 1938.117188 C 2514.820312 1945.675781 2494.308594 1968.566406 2489.558594 1991.671875 C 2480.269531 2036.15625 2524.761719 2080.640625 2569.238281 2071.355469 C 2602.71875 2064.445312 2628.628906 2030.328125 2625.390625 1998.152344 C 2623.011719 1975.476562 2605.949219 1952.15625 2584.359375 1941.574219 C 2571.191406 1935.3125 2550.890625 1933.800781 2537.5 1938.117188 Z M 2537.5 1938.117188 "/>
<path fill-rule="nonzero" fill="rgb(0%, 0%, 0%)" fill-opacity="1" d="M 49.839844 2214.527344 C 27.167969 2222.085938 6.652344 2244.976562 1.902344 2268.082031 C -7.382812 2312.566406 37.101562 2357.050781 81.585938 2347.765625 C 115.054688 2340.855469 140.96875 2306.734375 137.730469 2274.558594 C 135.355469 2251.886719 118.292969 2228.5625 96.699219 2217.980469 C 83.527344 2211.71875 63.230469 2210.207031 49.839844 2214.527344 Z M 49.839844 2214.527344 "/>
<path fill-rule="nonzero" fill="rgb(0%, 0%, 0%)" fill-opacity="1" d="M 326.246094 2214.527344 C 303.574219 2222.085938 283.058594 2244.976562 278.308594 2268.082031 C 269.023438 2312.566406 313.507812 2357.050781 357.992188 2347.765625 C 391.460938 2340.855469 417.375 2306.734375 414.136719 2274.558594 C 411.761719 2251.886719 394.699219 2228.5625 373.105469 2217.980469 C 359.933594 2211.71875 339.636719 2210.207031 326.246094 2214.527344 Z M 326.246094 2214.527344 "/>
<path fill-rule="nonzero" fill="rgb(0%, 0%, 0%)" fill-opacity="1" d="M 602.652344 2214.527344 C 579.980469 2222.085938 559.464844 2244.976562 554.714844 2268.082031 C 549.316406 2293.347656 561.625 2320.769531 585.378906 2336.96875 C 608.484375 2352.945312 634.828125 2353.164062 658.152344 2337.613281 C 696.371094 2312.132812 701.554688 2264.625 669.597656 2232.882812 C 651.242188 2214.3125 624.894531 2207.183594 602.652344 2214.527344 Z M 602.652344 2214.527344 "/>
<path fill-rule="nonzero" fill="rgb(0%, 0%, 0%)" fill-opacity="1" d="M 879.058594 2214.527344 C 856.386719 2222.085938 835.871094 2244.976562 831.121094 2268.082031 C 825.722656 2293.347656 838.03125 2320.769531 861.785156 2336.96875 C 884.890625 2352.945312 911.234375 2353.164062 934.558594 2337.613281 C 972.777344 2312.132812 977.960938 2264.625 946.003906 2232.882812 C 927.648438 2214.3125 901.300781 2207.183594 879.058594 2214.527344 Z M 879.058594 2214.527344 "/>
<path fill-rule="nonzero" fill="rgb(0%, 0%, 0%)" fill-opacity="1" d="M 1155.460938 2214.527344 C 1132.789062 2222.085938 1112.28125 2244.976562 1107.53125 2268.082031 C 1098.238281 2312.566406 1142.730469 2357.050781 1187.210938 2347.765625 C 1220.679688 2340.855469 1246.589844 2306.734375 1243.359375 2274.558594 C 1240.980469 2251.886719 1223.921875 2228.5625 1202.320312 2217.980469 C 1189.148438 2211.71875 1168.859375 2210.207031 1155.460938 2214.527344 Z M 1155.460938 2214.527344 "/>
<path fill-rule="nonzero" fill="rgb(0%, 0%, 0%)" fill-opacity="1" d="M 1431.878906 2214.527344 C 1409.199219 2222.085938 1388.679688 2244.976562 1383.929688 2268.082031 C 1374.648438 2312.566406 1419.128906 2357.050781 1463.621094 2347.765625 C 1497.089844 2340.855469 1523 2306.734375 1519.761719 2274.558594 C 1517.390625 2251.886719 1500.328125 2228.5625 1478.730469 2217.980469 C 1465.558594 2211.71875 1445.261719 2210.207031 1431.878906 2214.527344 Z M 1431.878906 2214.527344 "/>
<path fill-rule="nonzero" fill="rgb(0%, 0%, 0%)" fill-opacity="1" d="M 1708.28125 2214.527344 C 1685.609375 2222.085938 1665.089844 2244.976562 1660.339844 2268.082031 C 1651.058594 2312.566406 1695.539062 2357.050781 1740.019531 2347.765625 C 1773.5 2340.855469 1799.410156 2306.734375 1796.171875 2274.558594 C 1793.789062 2251.886719 1776.730469 2228.5625 1755.140625 2217.980469 C 1741.96875 2211.71875 1721.671875 2210.207031 1708.28125 2214.527344 Z M 1708.28125 2214.527344 "/>
<path fill-rule="nonzero" fill="rgb(0%, 0%, 0%)" fill-opacity="1" d="M 1984.691406 2214.527344 C 1962.011719 2222.085938 1941.5 2244.976562 1936.75 2268.082031 C 1927.460938 2312.566406 1971.949219 2357.050781 2016.429688 2347.765625 C 2049.898438 2340.855469 2075.808594 2306.734375 2072.570312 2274.558594 C 2070.199219 2251.886719 2053.140625 2228.5625 2031.550781 2217.980469 C 2018.378906 2211.71875 1998.070312 2210.207031 1984.691406 2214.527344 Z M 1984.691406 2214.527344 "/>
<path fill-rule="nonzero" fill="rgb(0%, 0%, 0%)" fill-opacity="1" d="M 2261.089844 2214.527344 C 2238.421875 2222.085938 2217.898438 2244.976562 2213.148438 2268.082031 C 2203.871094 2312.566406 2248.351562 2357.050781 2292.839844 2347.765625 C 2326.308594 2340.855469 2352.21875 2306.734375 2348.980469 2274.558594 C 2346.609375 2251.886719 2329.550781 2228.5625 2307.949219 2217.980469 C 2294.78125 2211.71875 2274.480469 2210.207031 2261.089844 2214.527344 Z M 2261.089844 2214.527344 "/>
<path fill-rule="nonzero" fill="rgb(0%, 0%, 0%)" fill-opacity="1" d="M 2537.5 2214.527344 C 2514.820312 2222.085938 2494.308594 2244.976562 2489.558594 2268.082031 C 2480.269531 2312.566406 2524.761719 2357.050781 2569.238281 2347.765625 C 2602.71875 2340.855469 2628.628906 2306.734375 2625.390625 2274.558594 C 2623.011719 2251.886719 2605.949219 2228.5625 2584.359375 2217.980469 C 2571.191406 2211.71875 2550.890625 2210.207031 2537.5 2214.527344 Z M 2537.5 2214.527344 "/>
<path fill-rule="nonzero" fill="rgb(0%, 0%, 0%)" fill-opacity="1" d="M 49.839844 2490.933594 C 27.167969 2498.492188 6.652344 2521.382812 1.902344 2544.488281 C -7.382812 2588.972656 37.101562 2633.457031 81.585938 2624.171875 C 115.054688 2617.261719 140.96875 2583.144531 137.730469 2550.96875 C 135.355469 2528.292969 118.292969 2504.972656 96.699219 2494.390625 C 83.527344 2488.128906 63.230469 2486.617188 49.839844 2490.933594 Z M 49.839844 2490.933594 "/>
<path fill-rule="nonzero" fill="rgb(0%, 0%, 0%)" fill-opacity="1" d="M 326.246094 2490.933594 C 303.574219 2498.492188 283.058594 2521.382812 278.308594 2544.488281 C 269.023438 2588.972656 313.507812 2633.457031 357.992188 2624.171875 C 391.460938 2617.261719 417.375 2583.144531 414.136719 2550.96875 C 411.761719 2528.292969 394.699219 2504.972656 373.105469 2494.390625 C 359.933594 2488.128906 339.636719 2486.617188 326.246094 2490.933594 Z M 326.246094 2490.933594 "/>
<path fill-rule="nonzero" fill="rgb(0%, 0%, 0%)" fill-opacity="1" d="M 602.652344 2490.933594 C 579.980469 2498.492188 559.464844 2521.382812 554.714844 2544.488281 C 545.429688 2588.972656 589.914062 2633.457031 634.398438 2624.171875 C 667.867188 2617.261719 693.78125 2583.144531 690.542969 2550.96875 C 688.167969 2528.292969 671.105469 2504.972656 649.511719 2494.390625 C 636.339844 2488.128906 616.042969 2486.617188 602.652344 2490.933594 Z M 602.652344 2490.933594 "/>
<path fill-rule="nonzero" fill="rgb(0%, 0%, 0%)" fill-opacity="1" d="M 879.058594 2490.933594 C 856.386719 2498.492188 835.871094 2521.382812 831.121094 2544.488281 C 821.835938 2588.972656 866.320312 2633.457031 910.804688 2624.171875 C 944.273438 2617.261719 970.1875 2583.144531 966.949219 2550.96875 C 964.574219 2528.292969 947.515625 2504.972656 925.917969 2494.390625 C 912.746094 2488.128906 892.449219 2486.617188 879.058594 2490.933594 Z M 879.058594 2490.933594 "/>
<path fill-rule="nonzero" fill="rgb(0%, 0%, 0%)" fill-opacity="1" d="M 1155.460938 2490.933594 C 1132.789062 2498.492188 1112.28125 2521.382812 1107.53125 2544.488281 C 1098.238281 2588.972656 1142.730469 2633.457031 1187.210938 2624.171875 C 1220.679688 2617.261719 1246.589844 2583.144531 1243.359375 2550.96875 C 1240.980469 2528.292969 1223.921875 2504.972656 1202.320312 2494.390625 C 1189.148438 2488.128906 1168.859375 2486.617188 1155.460938 2490.933594 Z M 1155.460938 2490.933594 "/>
<path fill-rule="nonzero" fill="rgb(0%, 0%, 0%)" fill-opacity="1" d="M 1431.878906 2490.933594 C 1409.199219 2498.492188 1388.679688 2521.382812 1383.929688 2544.488281 C 1374.648438 2588.972656 1419.128906 2633.457031 1463.621094 2624.171875 C 1497.089844 2617.261719 1523 2583.144531 1519.761719 2550.96875 C 1517.390625 2528.292969 1500.328125 2504.972656 1478.730469 2494.390625 C 1465.558594 2488.128906 1445.261719 2486.617188 1431.878906 2490.933594 Z M 1431.878906 2490.933594 "/>
<path fill-rule="nonzero" fill="rgb(0%, 0%, 0%)" fill-opacity="1" d="M 1708.28125 2490.933594 C 1685.609375 2498.492188 1665.089844 2521.382812 1660.339844 2544.488281 C 1651.058594 2588.972656 1695.539062 2633.457031 1740.019531 2624.171875 C 1773.5 2617.261719 1799.410156 2583.144531 1796.171875 2550.96875 C 1793.789062 2528.292969 1776.730469 2504.972656 1755.140625 2494.390625 C 1741.96875 2488.128906 1721.671875 2486.617188 1708.28125 2490.933594 Z M 1708.28125 2490.933594 "/>
<path fill-rule="nonzero" fill="rgb(0%, 0%, 0%)" fill-opacity="1" d="M 1984.691406 2490.933594 C 1962.011719 2498.492188 1941.5 2521.382812 1936.75 2544.488281 C 1927.460938 2588.972656 1971.949219 2633.457031 2016.429688 2624.171875 C 2049.898438 2617.261719 2075.808594 2583.144531 2072.570312 2550.96875 C 2070.199219 2528.292969 2053.140625 2504.972656 2031.550781 2494.390625 C 2018.378906 2488.128906 1998.070312 2486.617188 1984.691406 2490.933594 Z M 1984.691406 2490.933594 "/>
<path fill-rule="nonzero" fill="rgb(0%, 0%, 0%)" fill-opacity="1" d="M 2261.089844 2490.933594 C 2238.421875 2498.492188 2217.898438 2521.382812 2213.148438 2544.488281 C 2203.871094 2588.972656 2248.351562 2633.457031 2292.839844 2624.171875 C 2326.308594 2617.261719 2352.21875 2583.144531 2348.980469 2550.96875 C 2346.609375 2528.292969 2329.550781 2504.972656 2307.949219 2494.390625 C 2294.78125 2488.128906 2274.480469 2486.617188 2261.089844 2490.933594 Z M 2261.089844 2490.933594 "/>
<path fill-rule="nonzero" fill="rgb(0%, 0%, 0%)" fill-opacity="1" d="M 2537.5 2490.933594 C 2514.820312 2498.492188 2494.308594 2521.382812 2489.558594 2544.488281 C 2480.269531 2588.972656 2524.761719 2633.457031 2569.238281 2624.171875 C 2602.71875 2617.261719 2628.628906 2583.144531 2625.390625 2550.96875 C 2623.011719 2528.292969 2605.949219 2504.972656 2584.359375 2494.390625 C 2571.191406 2488.128906 2550.890625 2486.617188 2537.5 2490.933594 Z M 2537.5 2490.933594 "/>
</svg>
